<svg width="400" height="120" xmlns="http://www.w3.org/2000/svg">
 <style type="text/css">.st0{opacity:0.75;fill:#00BFE1;stroke:#1179DB;stroke-width:4;enable-background:new    ;}
	.st1{fill:none;}
	.st2{opacity:0.75;fill:#1179DB;enable-background:new    ;}
	.st3{opacity:0.75;fill:none;stroke:#8BD9DB;enable-background:new    ;}
	.st4{opacity:0.75;fill:none;stroke:#55D9DB;enable-background:new    ;}
	.st5{opacity:0.75;fill:#55D9DB;enable-background:new    ;}
	.st6{opacity:0.75;fill:#91FFE1;stroke:#55D9DB;stroke-width:4;enable-background:new    ;}
	.st7{fill:#91FFE1;}
	.st8{opacity:0.29;fill:#91FFE1;enable-background:new    ;}
	.st9{opacity:0.5;fill:#91FFE1;enable-background:new    ;}
	.st10{opacity:0.79;fill:#91FFE1;enable-background:new    ;}
	.st11{opacity:0.9;fill:#00BFE1;enable-background:new    ;}
	.st12{opacity:0.1;fill:#00BFE1;enable-background:new    ;}
	.st13{opacity:0.39;fill:#00BFE1;enable-background:new    ;}
	.st14{opacity:0.6;fill:#00BFE1;enable-background:new    ;}
	.st15{fill:#1179DB;}</style>

 <title>Layer 1</title>
 <g>
  <title>background</title>
  <rect height="402" width="582" class="st1" y="-1" x="-1" id="canvas_background"/>
 </g>
 <g>
  <title>Layer 1</title>
  <path d="m82.5,79c0,-20.7 16.8,-37.5 37.5,-37.5s37.5,16.8 37.5,37.5s-16.8,37.5 -37.5,37.5s-37.5,-16.8 -37.5,-37.5z" class="st0" id="svg_16"/>
  <path d="m16.5,8.5c0.3,0.1 0.4,0.5 0.2,0.8c-0.1,0.1 -0.1,0.2 -0.2,0.2l-11.4,7c-0.5,0.3 -0.8,0.1 -0.8,-0.5l0,-14c0,-0.5 0.4,-0.8 0.8,-0.5l11.4,7z" class="st2" id="svg_1"/>
  <path d="m24,1l2.2,0c0.6,0 1,0.4 1,1l0,14c0,0.6 -0.4,1 -1,1l-2.2,0c-0.6,0 -1,-0.4 -1,-1l0,-14c0,-0.5 0.4,-1 1,-1zm9.8,0l2.2,0c0.6,0 1,0.4 1,1l0,14c0,0.6 -0.4,1 -1,1l-2.2,0c-0.6,0 -1,-0.4 -1,-1l0,-14c0,-0.5 0.4,-1 1,-1z" class="st2" id="svg_2"/>
  <path d="m81,1.4c0,-0.6 0.4,-1 1,-1l5.4,0c0.6,0 0.7,0.3 0.3,0.7l-6,6c-0.4,0.4 -0.7,0.3 -0.7,-0.3l0,-5.4zm0,15.8c0,0.6 0.4,1 1,1l5.4,0c0.6,0 0.7,-0.3 0.3,-0.7l-6,-6c-0.4,-0.4 -0.7,-0.3 -0.7,0.3c0,0 0,5.4 0,5.4zm17.8,-15.8c0,-0.6 -0.4,-1 -1,-1l-5.4,0c-0.6,0 -0.7,0.3 -0.3,0.7l6,6c0.4,0.4 0.7,0.3 0.7,-0.3c0,0 0,-5.4 0,-5.4zm0,15.8c0,0.6 -0.4,1 -1,1l-5.4,0c-0.6,0 -0.7,-0.3 -0.3,-0.7l6,-6c0.4,-0.4 0.7,-0.3 0.7,0.3c0,0 0,5.4 0,5.4z" class="st2" id="svg_3"/>
  <path d="m112.7,5c0,0.6 0.4,1 1,1l4.1,0c0.6,0 0.7,-0.3 0.3,-0.7l-4.7,-4.7c-0.4,-0.4 -0.7,-0.3 -0.7,0.3c0,0 0,4.1 0,4.1zm-7.1,1c0.6,0 1,-0.4 1,-1l0,-4.1c0,-0.6 -0.3,-0.7 -0.7,-0.3l-4.7,4.7c-0.4,0.4 -0.3,0.7 0.3,0.7c0,0 4.1,0 4.1,0zm1,7.1c0,-0.6 -0.4,-1 -1,-1l-4.1,0c-0.6,0 -0.7,0.3 -0.3,0.7l4.7,4.7c0.4,0.4 0.7,0.3 0.7,-0.3c0,0 0,-4.1 0,-4.1zm7.1,-1c-0.6,0 -1,0.4 -1,1l0,4.1c0,0.5 0.3,0.7 0.7,0.3l4.7,-4.7c0.4,-0.4 0.3,-0.7 -0.3,-0.7c0,0 -4.1,0 -4.1,0z" class="st2" id="svg_4"/>
  <path d="m67,5.8c-0.5,0.4 -1.2,0.6 -1.8,0.6l-3.2,0c-0.6,0 -1,0.4 -1,1l0,5.7c0,0.6 0.4,1 1,1l4.2,0c0.3,0.2 0.5,0.4 0.8,0.6l3.5,2.6c0.4,0.3 0.8,0.1 0.8,-0.4l0,-13.4c0,-0.5 -0.4,-0.7 -0.8,-0.4l-3.5,2.7z" class="st2" id="svg_5"/>
  <path d="m73.9,2.5c0,0 3.9,-0.8 3.9,7.7s-3.9,7.8 -3.9,7.8" class="st3" id="svg_6"/>
  <path d="m72.6,6.4c0,0 2.6,-0.4 2.6,3.8s-2.6,3.9 -2.6,3.9" class="st4" id="svg_7"/>
  <path d="m47,5.8c-0.5,0.4 -1.2,0.6 -1.8,0.6l-3.2,0c-0.6,0 -1,0.4 -1,1l0,5.7c0,0.6 0.4,1 1,1l4.2,0c0.3,0.2 0.5,0.4 0.8,0.6l3.5,2.6c0.4,0.3 0.8,0.1 0.8,-0.4l0,-13.4c0,-0.5 -0.4,-0.7 -0.8,-0.4l-3.5,2.7z" class="st2" id="svg_8"/>
  <path d="m52.8,7l5.4,5.4m-5.4,0l5.4,-5.4" class="st4" id="svg_9"/>
  <path d="m128.7,8.6c-6.2,-4.2 -6.5,7.8 0,3.9m6.5,-3.9c-6.2,-4.2 -6.5,7.8 0,3.9" class="st4" id="svg_10"/>
  <path d="m122.2,3.4l15.7,0l0,13.1l-15.7,0l0,-13.1zm-1.4,-1.4l0,15.7l18.3,0l0,-15.7l-18.3,0z" class="st2" id="svg_11"/>
  <path d="m143.2,3l14,0c1.1,0 2,0.9 2,2l0,10c0,1.1 -0.9,2 -2,2l-14,0c-1.1,0 -2,-0.9 -2,-2l0,-10c0,-1.1 0.9,-2 2,-2z" class="st2" id="svg_12"/>
  <path d="m146.4,13.8c-0.8,0 -1.6,-0.4 -2.1,-1c-1.1,-1.4 -1,-3.4 0.1,-4.8c0.5,-0.6 2,-1.7 4.6,0.2l-0.6,0.8c-1.4,-1 -2.6,-1.1 -3.3,-0.3c-0.8,1 -0.8,2.4 -0.1,3.5c0.7,0.9 1.9,0.8 3.4,-0.1l0.5,0.9c-0.7,0.5 -1.6,0.7 -2.5,0.8l0,0l0,0zm7.5,0c-0.8,0 -1.6,-0.4 -2.1,-1c-1.1,-1.4 -1,-3.4 0.1,-4.8c0.5,-0.6 2,-1.7 4.6,0.2l-0.5,0.8c-1.4,-1 -2.6,-1.1 -3.3,-0.3c-0.8,1 -0.8,2.4 -0.1,3.5c0.7,0.9 1.9,0.8 3.4,-0.1l0.5,0.9c-0.8,0.5 -1.7,0.7 -2.6,0.8l0,0l0,0z" class="st5" id="svg_13"/>
  <path d="m2.5,79c0,-20.7 16.8,-37.5 37.5,-37.5s37.5,16.8 37.5,37.5s-16.8,37.5 -37.5,37.5s-37.5,-16.8 -37.5,-37.5z" class="st6" id="svg_14"/>
  <path d="m60.3,77c0.6,0.2 0.8,0.8 0.6,1.4c-0.1,0.3 -0.3,0.5 -0.6,0.6l-30.3,17.5c-1,0.6 -1.7,0.1 -1.7,-1l0,-35c0,-1.1 0.8,-1.5 1.7,-1l30.3,17.5z" class="st6" id="svg_15"/>
  <path d="m140.3,77c0.6,0.2 0.8,0.8 0.6,1.4c-0.1,0.3 -0.3,0.5 -0.6,0.6l-30.3,17.5c-1,0.6 -1.7,0.1 -1.7,-1l0,-35c0,-1.1 0.8,-1.5 1.7,-1l30.3,17.5z" class="st0" id="svg_17"/>
  <circle r="8.1" cy="47.1" cx="201.9" class="st7" id="svg_18"/>
  <circle r="5" cy="79" cx="233.9" class="st8" id="svg_19"/>
  <circle r="6" cy="110.9" cx="201.9" class="st9" id="svg_20"/>
  <circle r="7" cy="79" cx="170.1" class="st10" id="svg_21"/>
  <circle r="7.5" cy="56.3" cx="178.2" class="st11" id="svg_22"/>
  <circle r="4.5" cy="56.1" cx="226.3" class="st12" id="svg_23"/>
  <circle r="5.5" cy="102.8" cx="225.8" class="st13" id="svg_24"/>
  <circle r="6.5" cy="102.8" cx="178.2" class="st14" id="svg_25"/>
  <path d="m178,9.4c0,0.4 -0.4,0.7 -0.9,0.7c-0.1,0 -0.2,0 -0.2,-0.1l-4.9,-1.8c-0.5,-0.2 -0.6,-0.6 -0.1,-0.8l6.2,-3.6c0.5,-0.3 0.8,-0.1 0.7,0.5l-0.8,5.1l0,0z" class="st15" id="svg_26"/>
  <path d="m169.4,15.9c-1,0 -2,-0.2 -2.9,-0.7c-2,-1 -3.2,-3 -3.2,-5.2c0.1,-3.4 2.9,-6 6.3,-6c2.5,0.1 4.8,1.7 5.6,4.1l0.1,-0.1l2.1,1.1c-0.6,-4.4 -4.7,-7.5 -9.1,-6.9c-3.9,0.6 -6.9,3.9 -7,7.9c0,2.9 1.7,5.6 4.3,7c1.2,0.6 2.5,0.9 3.8,1c2.6,0 5,-1.2 6.6,-3.3l-1.8,-0.9c-1.2,1.2 -3,2 -4.8,2l0,0l0,0z" class="st15" id="svg_27"/>
  <path d="m183.4,3.2c0.8,0 1.5,0.7 1.5,1.5s-0.7,1.5 -1.5,1.5s-1.5,-0.7 -1.5,-1.5c0,-0.9 0.7,-1.5 1.5,-1.5zm5.1,0l8.5,0c0.9,0 1.5,0.7 1.5,1.5s-0.7,1.5 -1.5,1.5l-8.5,0c-0.9,0 -1.5,-0.7 -1.5,-1.5c-0.1,-0.9 0.6,-1.5 1.5,-1.5zm-5.1,5c0.8,0 1.5,0.7 1.5,1.5s-0.7,1.5 -1.5,1.5s-1.5,-0.7 -1.5,-1.5c0,-0.9 0.7,-1.5 1.5,-1.5zm5.1,0l8.5,0c0.9,0 1.5,0.7 1.5,1.5s-0.7,1.5 -1.5,1.5l-8.5,0c-0.9,0 -1.5,-0.7 -1.5,-1.5c-0.1,-0.9 0.6,-1.5 1.5,-1.5zm-5.1,5c0.8,0 1.5,0.7 1.5,1.5s-0.7,1.5 -1.5,1.5s-1.5,-0.7 -1.5,-1.5c0,-0.9 0.7,-1.5 1.5,-1.5zm5.1,0l8.5,0c0.9,0 1.5,0.7 1.5,1.5s-0.7,1.5 -1.5,1.5l-8.5,0c-0.9,0 -1.5,-0.7 -1.5,-1.5c-0.1,-0.9 0.6,-1.5 1.5,-1.5z" class="st2" id="svg_28"/>
 </g>
</svg>